<?xml version="1.0" encoding="utf-8"?>
<!-- Generator: Adobe Illustrator 25.4.1, SVG Export Plug-In . SVG Version: 6.00 Build 0)  -->
<svg version="1.1" id="EPN_x5F_Logo" xmlns="http://www.w3.org/2000/svg" xmlns:xlink="http://www.w3.org/1999/xlink" x="0px"
	 y="0px" viewBox="0 0 395.4 395.4" style="enable-background:new 0 0 395.4 395.4;" xml:space="preserve">
<style type="text/css">
	.st0{fill:#002F5C;}
	.st1{fill:#C3360E;}
	.st2{fill:none;}
	.st3{fill:#ACAAA2;}
	.st4{fill:#897C73;}
	.st5{fill:#FEFACB;}
	.st6{fill:#F8F6D8;}
	.st7{fill:#8DA2D0;}
	.st8{fill:#EBC35F;}
	.st9{fill:#FFFFFF;}
</style>
<g>
	<path class="st0" d="M313.8,147.9H200.6v165.7c0,0,12.5-17.8,52.4-23.9c0,0,12.2-1.2,20.2-0.7c0,0,35.3-0.4,40.7-39.8V147.9H313.8z
		"/>
	<path class="st0" d="M79.2,148.3h113.3V314c0,0-12.5-17.8-52.4-23.9c0,0-12.1-1.1-20.1-0.8c0,0-35.4-0.4-40.7-39.8V148.3H79.2z"/>
	<path class="st1" d="M313.8,32.9v107.3H80.1V32.9H313.8z"/>
	<path class="st2" d="M166.3,83C166.3,83,166.4,83,166.3,83C166.3,83.1,166.3,83.1,166.3,83L166.3,83C166.4,83.1,166.4,83,166.3,83z
		"/>
	<path class="st3" d="M339.9,291.5c0,0-25.6,7.5-19.4,1.6c6.3-6,12.9-30.2,12.9-30.2s-17.1,27.3-49.3,30.8l0,0
		c-5.4,0.6-9.1,1.9-9.1,3.4v0.7c0.7,1.9,7.4,3.5,15.7,3.5c1,0,1.9,0,2.8,0l1.7-0.1c0.4,0,0.8,0,1.1,0.2c1.4,0.6,2,2.5,1.8,4.8
		l0.1-0.1L298,320v0.4C320.4,315,332.6,303.8,339.9,291.5z"/>
	<path class="st4" d="M298.2,306.2c0.2-2.3-0.5-4.2-1.8-4.8c-0.3-0.2-0.7-0.2-1.1-0.2l-1.7,0.1c-0.9,0-1.9,0-2.8,0
		c-8.2,0-15-1.6-15.7-3.5l0.5,24.3c0.1,0,0.2-0.1,0.3-0.1C285.7,317.3,293.4,311.8,298.2,306.2z"/>
	<path class="st3" d="M95,319.9L94.9,308v-1.2V306c0,0,0,0,0.1,0.1c-0.1-2.3,0.5-4.1,1.8-4.7c0.3-0.2,0.7-0.2,1.1-0.2l1.7,0.2
		c0.9,0,1.9,0,2.8,0c8.1,0,14.8-1.5,15.6-3.4v-0.5c0-1.5-3.7-2.8-9.1-3.4l0,0c-32-3.5-49-30.8-49-30.8s6.6,24.2,12.8,30.2
		c6.3,6-19.2-1.6-19.2-1.6c7.3,12.3,19.4,23.5,41.6,28.8v-0.4v-0.4H95z"/>
	<path class="st4" d="M102.3,301.4c-1,0-1.9,0-2.8,0l-1.7-0.2c-0.4,0-0.7,0.1-1.1,0.2c-1.3,0.6-1.9,2.4-1.8,4.7
		c4.7,5.6,12.4,11.1,22.3,15.8c0.1,0,0.1,0,0.2,0.1c0,0,0.1,0,0.1,0.1l0.5-24.2v0.1C117.1,299.9,110.5,301.4,102.3,301.4z"/>
	<path class="st0" d="M298.3,306l-0.1,0.1c-4.8,5.7-12.5,11.1-22.3,15.8c-0.1,0-0.2,0.1-0.3,0.1c-19.7,9.4-47.8,16-78.6,16h-0.8
		c-30.8,0-59-6.6-78.7-16c0,0-0.1,0-0.1-0.1c0,0-0.1,0-0.2-0.1c-9.9-4.8-17.6-10.2-22.3-15.8c0,0,0-0.1-0.1-0.1v0.8v1.2l0.2,11.9
		v0.3v0.4l0.2,11.9c13.4,17.4,53.5,30.1,101,30.1h0.8c47.4,0,87.6-12.7,101-30.1l0.2-12.2v-0.4L298.3,306z"/>
	<rect x="88.9" y="258.4" class="st4" width="93.3" height="5.2"/>
	<path class="st5" d="M182.2,188v0.2C182.2,188.2,182.2,188.1,182.2,188L182.2,188z"/>
	<g>
		<path class="st6" d="M94,249.6c0,0,1.1,0.3,3.6-0.6c0,0,25.9-8.1,37.9,3.8l0,0c12-11.9,37.9-3.8,37.9-3.8c2.6,1,3.6,0.6,3.6,0.6
			c3.6,2.4,5.1-1,5.1-1v6.3c0,0,0,0,0-0.1v-66.6c-0.2,1.3-1.5,2.2-3.2,2.2l-2.5-0.1l0,0h-1.5c-21.4-8.5-39.4,1.5-39.4,1.5h-0.1
			c0,0-17.9-10-39.4-1.5h-1.5l0,0l-2.3,0.1c-1.8,0-3.2-1-3.4-2.2v60.3C89.1,249,90.6,251.8,94,249.6z"/>
		<path class="st3" d="M182.2,248.6c0,0-1.5,3.4-5.1,1c0,0-1.1,0.3-3.6-0.6c0,0-25.9-8.1-37.9,3.8l0,0c-12-11.9-37.9-3.8-37.9-3.8
			c-2.6,1-3.6,0.6-3.6,0.6c-3.4,2.2-4.9-0.6-5.1-1l0,0v9.8h46.6l0,0h46.6v-3.5L182.2,248.6z"/>
	</g>
	<path class="st2" d="M164.5,85.9L164.5,85.9l7-2c-1.2-4.1-1.9-8.1-2.1-12c-1.8,0-3.5-0.2-5.1-0.4v0.1
		C163.2,76.2,163.2,81.2,164.5,85.9z"/>
	<path class="st2" d="M166.1,90c0.1,0.2,0.1,0.3,0.2,0.5c0.6,1.4,1.4,2.7,2.3,4c1.4,2.1,3.1,3.9,4.9,5.5l0,0
		c1.3-1.1,2.6-2.2,4.2-3.2c-2.1-3.2-3.9-6.7-5.3-10.5l-7,2l0,0C165.6,89,165.8,89.5,166.1,90z"/>
	<path class="st2" d="M178.5,52.5c-0.1,0.1-0.2,0.1-0.3,0.2c0.4,0.3,0.9,0.5,1.3,0.8c0.1-0.6,0.2-1.1,0.2-1.7
		c-0.2,0.1-0.4,0.2-0.7,0.4C178.9,52.2,178.7,52.3,178.5,52.5z"/>
	<path class="st2" d="M188.2,48.4l1.9,5.5c1.8-0.7,3.3-1.6,4.6-2.9c-1.1-1.2-2.2-2.3-3.3-3.3c-0.2,0-0.4,0-0.6,0.1
		C189.9,48,189.1,48.2,188.2,48.4z"/>
	<path class="st2" d="M182.7,50.3c-0.3,1.3-0.5,2.6-0.6,4.1c1.1,0.3,2.2,0.4,3.3,0.4c0.7,0,1.4-0.1,2.1-0.2l-1.8-5.5
		c-0.8,0.3-1.6,0.6-2.4,0.9C183.1,50.1,182.9,50.2,182.7,50.3z"/>
	<path class="st2" d="M193.5,108.6c0,0,0.1,0,0.2,0c0.4-1.4,0.9-2.8,1.7-4c-2.5-3.1-4.9-6.7-7-10.7c-2.6,1.2-4.9,2.4-7.1,3.7
		c3.4,4.6,7.5,8.3,11.9,11C193.3,108.6,193.4,108.6,193.5,108.6L193.5,108.6z"/>
	<path class="st2" d="M209.9,72.8l8.8-2.5c-1.4-3.7-3.1-7.2-5.2-10.3c-2.3,1.3-4.7,2.6-7.4,3.8C207.5,66.6,208.8,69.6,209.9,72.8z"
		/>
	<path class="st2" d="M169.3,69.2c0-3.5,0.5-6.8,1.3-10c-2.5,3-4.4,6.2-5.6,9.7C166.4,69.1,167.9,69.2,169.3,69.2z"/>
	<path class="st2" d="M172,69.2c2.6-0.1,5.3-0.3,8.1-0.7c-0.5-3.4-0.8-6.6-0.8-9.7c0-0.9,0-1.8,0.1-2.7c-1.2-0.5-2.3-1.2-3.4-2
		c-0.4,0.3-0.8,0.6-1.2,0.9C173,59.4,172,64.1,172,69.2z"/>
	<path class="st2" d="M210.4,106c0.2-0.1,0.3-0.1,0.5-0.2c0.3-1.6,0.6-3.3,0.7-5.1c-1-0.2-2-0.4-3.1-0.4c-0.9,0-1.8,0.1-2.7,0.3
		l2.1,6.3C208.8,106.6,209.6,106.3,210.4,106L210.4,106z"/>
	<path class="st2" d="M203,108.2L203,108.2c0.5-0.1,1-0.2,1.5-0.3c0.3-0.1,0.6-0.1,0.9-0.2l-2.1-6.3c-1.8,0.8-3.3,1.9-4.5,3.2
		c1.2,1.4,2.4,2.6,3.7,3.7h0.1C202.7,108.2,202.8,108.2,203,108.2z"/>
	<path class="st2" d="M179.1,99c-1.4,0.9-2.6,1.8-3.7,2.7c3.5,2.7,7.5,4.6,11.8,5.7C184.3,105.1,181.5,102.3,179.1,99z"/>
	<path class="st2" d="M196.8,108.7c0.7,0,1.5,0,2.2-0.1c-0.6-0.6-1.2-1.2-1.8-1.9c-0.3,0.6-0.6,1.3-0.8,2
		C196.5,108.7,196.6,108.7,196.8,108.7C196.7,108.7,196.8,108.7,196.8,108.7z"/>
	<path class="st2" d="M210.4,84.4c-0.5-2.7-1.3-5.5-2.2-8.4l-9.7,2.8l2.6,7.7C204.2,85.6,207.4,84.9,210.4,84.4z"/>
	<path class="st2" d="M201.9,89l3,9.1c1.2-0.2,2.3-0.4,3.5-0.4c1.1,0,2.2,0.1,3.3,0.3c0-0.3,0-0.6,0-1c0-3.2-0.3-6.5-0.9-10
		C208,87.5,205,88.1,201.9,89z"/>
	<path class="st2" d="M190.8,92.8c1.9,3.6,4,6.9,6.3,9.7c1.4-1.5,3.3-2.8,5.4-3.6l-3.1-9.2C196.4,90.6,193.5,91.7,190.8,92.8z"/>
	<path class="st2" d="M196,79.6l-9.7,2.8c1,2.8,2.2,5.6,3.4,8.1c2.8-1.2,5.8-2.3,8.9-3.2L196,79.6z"/>
	<path class="st2" d="M174.9,85.6c1.3,3.5,3,6.8,4.9,9.8c2.2-1.4,4.7-2.7,7.4-3.9c-1.3-2.7-2.5-5.5-3.5-8.4L174.9,85.6z"/>
	<path class="st2" d="M219.6,72.7l-8.8,2.5c0.9,2.9,1.7,5.9,2.2,8.7c3-0.4,5.8-0.7,8.5-0.7C221.3,79.8,220.7,76.3,219.6,72.7z"/>
	<path class="st2" d="M213.5,86.6c0.6,3.6,0.9,7.1,0.9,10.4c0,0.6,0,1.2-0.1,1.8c1.6,0.6,3,1.5,4.3,2.5c2-4.5,3.1-9.7,3.1-15.2
		c0-0.1,0-0.2,0-0.3C219.1,85.9,216.3,86.2,213.5,86.6z"/>
	<path class="st2" d="M180.5,71.1c-2.9,0.4-5.8,0.6-8.4,0.7c0.2,3.7,0.8,7.5,2,11.3l8.8-2.5C181.9,77.4,181.1,74.2,180.5,71.1z"/>
	<path class="st2" d="M183.1,70.7c0.6,3,1.3,6,2.3,9.1l9.7-2.8l-2.8-8.4C189.2,69.6,186.1,70.2,183.1,70.7z"/>
	<path class="st2" d="M207.4,73.5c-1.1-3.1-2.3-6-3.7-8.7c-2.8,1.1-5.8,2.2-8.9,3.2l2.8,8.4L207.4,73.5z"/>
	<path class="st2" d="M212,57.8c-3.4-4.5-7.5-8.1-11.9-10.8c-0.4,1.4-1.1,2.8-2,4c2.5,3,4.8,6.5,6.8,10.4
		C207.5,60.3,209.8,59.1,212,57.8z"/>
	<path class="st2" d="M191.5,66.2l-3.1-9.1c-1,0.2-2,0.3-3,0.3c-1.2,0-2.4-0.1-3.5-0.4c0,0.6,0,1.2,0,1.8c0,2.9,0.3,6.1,0.7,9.3
		C185.5,67.7,188.5,67,191.5,66.2z"/>
	<path class="st2" d="M202.5,62.5c-1.9-3.5-4-6.7-6.2-9.4c-1.5,1.4-3.3,2.6-5.4,3.3l3.1,9.1C197,64.6,199.8,63.6,202.5,62.5z"/>
	<path class="st2" d="M200,47.3c0.1,0,0.3,0,0.4,0c-0.1-0.1-0.2-0.1-0.3-0.2C200,47.1,200,47.2,200,47.3z"/>
	<path class="st7" d="M213.7,104.8c1-0.5,1.9-1.1,2.8-1.7c-0.7-0.6-1.5-1.1-2.4-1.5C214,102.7,213.9,103.8,213.7,104.8z"/>
	<path class="st7" d="M208.5,100.3c-0.9,0-1.8,0.1-2.7,0.3l2.1,6.3c0.8-0.3,1.6-0.6,2.4-0.9l0,0c0.2-0.1,0.3-0.1,0.5-0.2
		c0.3-1.6,0.6-3.3,0.7-5.1C210.6,100.4,209.5,100.3,208.5,100.3z"/>
	<path class="st7" d="M214.2,56.4c1.3-0.8,2.4-1.7,3.5-2.5c-3.3-2.4-7.1-4.3-11.1-5.4C209.4,50.8,212,53.4,214.2,56.4z"/>
	<path class="st7" d="M224.2,83.2c1.9,0,3.8,0.1,5.5,0.4c0.9-4.4,0.7-9-0.6-13.6l-7,2C223.3,75.8,223.9,79.5,224.2,83.2z"/>
	<path class="st7" d="M198.1,51c2.5,3,4.8,6.5,6.8,10.4c2.5-1.1,4.9-2.4,7.1-3.6c-3.3-4.4-7.3-7.9-11.6-10.5c-0.1,0-0.3,0-0.4,0
		C199.6,48.6,198.9,49.9,198.1,51z"/>
	<path class="st7" d="M196.4,108.7c0.1,0,0.2,0,0.3,0h0.1c0.7,0,1.5,0,2.2-0.1c-0.6-0.6-1.2-1.2-1.8-1.9
		C196.9,107.4,196.6,108.1,196.4,108.7z"/>
	<path class="st7" d="M221.3,69.5l6.9-2c-1.8-4.7-4.8-8.7-8.4-11.9c-1.2,1-2.6,2-4,3C218,61.9,219.9,65.6,221.3,69.5z"/>
	<path class="st7" d="M224.3,86.2c0,4-0.6,7.9-1.6,11.5c3-3.4,5.1-7.3,6.3-11.5c-1.5-0.1-3.1-0.3-4.8-0.3
		C224.3,85.9,224.3,86,224.3,86.2z"/>
	<path class="st7" d="M179.8,51.7c-0.2,0.1-0.4,0.2-0.7,0.4c-0.2,0.1-0.4,0.3-0.6,0.4c-0.1,0.1-0.2,0.1-0.3,0.2
		c0.4,0.3,0.9,0.5,1.3,0.8C179.6,52.8,179.7,52.3,179.8,51.7z"/>
	<path class="st7" d="M180.1,68.5c-0.5-3.4-0.8-6.6-0.8-9.7c0-0.9,0-1.8,0.1-2.7c-1.2-0.5-2.3-1.2-3.4-2c-0.4,0.3-0.8,0.6-1.2,0.9
		c-1.8,4.2-2.8,9-2.8,14.1C174.5,69.1,177.2,68.9,180.1,68.5z"/>
	<path class="st7" d="M185.4,54.8c0.7,0,1.4-0.1,2.1-0.2l-1.8-5.5c-0.8,0.3-1.6,0.6-2.4,0.9c-0.2,0.1-0.4,0.2-0.5,0.3
		c-0.3,1.3-0.5,2.6-0.6,4.1C183.2,54.6,184.3,54.8,185.4,54.8z"/>
	<path class="st7" d="M194.6,51c-1.1-1.2-2.2-2.3-3.3-3.3c-0.2,0-0.4,0-0.6,0.1c-0.9,0.2-1.7,0.4-2.6,0.6l1.9,5.5
		C191.9,53.2,193.4,52.3,194.6,51z"/>
	<path class="st7" d="M170.7,59.2c-2.5,3-4.4,6.2-5.6,9.7c1.4,0.1,2.8,0.2,4.3,0.3C169.4,65.7,169.8,62.4,170.7,59.2z"/>
	<path class="st7" d="M172.4,86.4l-7,2l0,0c0.2,0.5,0.4,1.1,0.7,1.6c0.1,0.2,0.1,0.3,0.2,0.5c0.6,1.4,1.4,2.7,2.3,4
		c1.4,2.1,3.1,3.9,4.9,5.5l0,0c1.3-1.1,2.6-2.2,4.2-3.2C175.5,93.7,173.7,90.1,172.4,86.4z"/>
	<path class="st7" d="M188.4,93.9c-2.6,1.2-4.9,2.4-7.1,3.7c3.4,4.6,7.5,8.3,11.9,11c0.1,0,0.1,0,0.2,0l0,0c0.1,0,0.1,0,0.2,0
		c0.4-1.4,0.9-2.8,1.7-4C192.9,101.5,190.5,97.9,188.4,93.9z"/>
	<path class="st7" d="M179.1,99c-1.4,0.9-2.6,1.8-3.7,2.7c3.5,2.7,7.5,4.6,11.8,5.7C184.3,105.1,181.5,102.3,179.1,99z"/>
	<path class="st7" d="M169.4,71.8c-1.8,0-3.5-0.2-5.1-0.4v0.1c-1.1,4.7-1.1,9.6,0.2,14.3l0,0l7-2C170.3,79.8,169.6,75.8,169.4,71.8z
		"/>
	<path class="st7" d="M198.8,104.5c1.2,1.4,2.4,2.6,3.7,3.7h0.1c0.1,0,0.3-0.1,0.4-0.1l0,0c0.5-0.1,1-0.2,1.5-0.3
		c0.3-0.1,0.6-0.1,0.9-0.2l-2.1-6.3C201.5,102.1,200,103.2,198.8,104.5z"/>
	<path class="st7" d="M214.4,97c0,0.6,0,1.2-0.1,1.8c1.6,0.6,3,1.5,4.3,2.5c2-4.5,3.1-9.7,3.1-15.2c0-0.1,0-0.2,0-0.3
		c-2.6,0.1-5.3,0.3-8.2,0.7C214.1,90.2,214.4,93.7,214.4,97z"/>
	<path class="st7" d="M210.4,84.4c-0.5-2.7-1.3-5.5-2.2-8.4l-9.7,2.8l2.6,7.7C204.2,85.6,207.4,84.9,210.4,84.4z"/>
	<path class="st7" d="M190.8,92.8c1.9,3.6,4,6.9,6.3,9.7c1.4-1.5,3.3-2.8,5.4-3.6l-3.1-9.2C196.4,90.6,193.5,91.7,190.8,92.8z"/>
	<path class="st7" d="M213,84c3-0.4,5.8-0.7,8.5-0.7c-0.2-3.4-0.9-7-2-10.5l-8.8,2.5C211.7,78.2,212.4,81.2,213,84z"/>
	<path class="st7" d="M201.9,89l3,9.1c1.2-0.2,2.3-0.4,3.5-0.4c1.1,0,2.2,0.1,3.3,0.3c0-0.3,0-0.6,0-1c0-3.2-0.3-6.5-0.9-10
		C208,87.5,205,88.1,201.9,89z"/>
	<path class="st7" d="M194.7,47.3c0.5,0.5,1,1.1,1.6,1.6c0.4-0.6,0.7-1.2,0.9-1.9c-0.6,0-1.2,0-1.9,0l0.1,0.2
		C195.2,47.3,195,47.3,194.7,47.3z"/>
	<path class="st7" d="M194,65.5c3-0.9,5.8-1.9,8.5-3c-1.9-3.5-4-6.7-6.2-9.4c-1.5,1.4-3.3,2.6-5.4,3.3L194,65.5z"/>
	<path class="st7" d="M218.8,70.3c-1.4-3.7-3.1-7.2-5.2-10.3c-2.3,1.3-4.7,2.6-7.4,3.8c1.4,2.9,2.7,5.9,3.8,9L218.8,70.3z"/>
	<path class="st7" d="M197.7,76.4l9.7-2.8c-1.1-3.1-2.3-6-3.7-8.7c-2.8,1.1-5.8,2.2-8.9,3.2L197.7,76.4z"/>
	<path class="st7" d="M195.1,77.1l-2.8-8.4c-3.1,0.8-6.2,1.5-9.2,2c0.6,3,1.3,6,2.3,9.1L195.1,77.1z"/>
	<path class="st7" d="M191.5,66.2l-3.1-9.1c-1,0.2-2,0.3-3,0.3c-1.2,0-2.4-0.1-3.5-0.4c0,0.6,0,1.2,0,1.8c0,2.9,0.3,6.1,0.7,9.3
		C185.5,67.7,188.5,67,191.5,66.2z"/>
	<path class="st7" d="M180.5,71.1c-2.9,0.4-5.8,0.6-8.4,0.7c0.2,3.7,0.8,7.5,2,11.3l8.8-2.5C181.9,77.4,181.1,74.2,180.5,71.1z"/>
	<path class="st7" d="M196,79.6l-9.7,2.8c1,2.8,2.2,5.6,3.4,8.1c2.8-1.2,5.8-2.3,8.9-3.2L196,79.6z"/>
	<path class="st7" d="M174.9,85.6c1.3,3.5,3,6.8,4.9,9.8c2.2-1.4,4.7-2.7,7.4-3.9c-1.3-2.7-2.5-5.5-3.5-8.4L174.9,85.6z"/>
	<path class="st8" d="M211.3,105.6c-0.1,0.1-0.3,0.1-0.4,0.2c-0.2,0-0.3,0.1-0.5,0.2l0,0c-0.8,0.4-1.6,0.7-2.4,0.9l0,0l0,0
		c-0.7,0.2-1.4,0.5-2.1,0.6c-0.1,0-0.2,0.1-0.3,0.1l0,0c-0.3,0.1-0.6,0.1-0.9,0.2c-0.5,0.1-1,0.2-1.5,0.3l0,0
		c-0.1,0-0.3,0.1-0.4,0.1h-0.1c-0.7,0.1-1.4,0.2-2.1,0.3c-0.1,0-0.2,0-0.4,0.1c-0.1,0-0.2,0-0.3,0c-0.2,0-0.4,0-0.6,0
		c-0.7,0.1-1.5,0.1-2.2,0.1H197c-0.2,0-0.3,0-0.4,0c-0.1,0-0.2,0-0.2,0c-0.8,0-1.7-0.1-2.5-0.1c-0.1,0-0.1,0-0.2,0c0,0,0,0-0.1,0
		s-0.1,0-0.2,0c-1.5-0.1-2.9-0.4-4.4-0.7c-0.5-0.1-1.1-0.3-1.6-0.4c-4.3-1.1-8.3-3.1-11.8-5.7c0,0,0,0-0.1-0.1
		c-0.4-0.3-0.8-0.7-1.2-1c-0.2-0.2-0.5-0.4-0.7-0.6l0,0l0,0c-1.8-1.6-3.5-3.5-4.9-5.5c-0.9-1.3-1.6-2.6-2.3-4
		c-0.1-0.2-0.1-0.3-0.2-0.5c-0.2-0.5-0.5-1.1-0.7-1.6l0,0l0,0c-0.3-0.8-0.6-1.6-0.8-2.4l0,0l0,0l0,0c-1.3-4.7-1.4-9.6-0.2-14.3v-0.1
		c0.2-0.8,0.4-1.6,0.7-2.4c0-0.1,0.1-0.1,0.1-0.2c1.2-3.5,3.1-6.8,5.6-9.7c0.4-0.5,0.7-0.9,1.1-1.3c0.9-1,1.9-1.9,3-2.8
		c0.4-0.3,0.8-0.6,1.2-0.9c0.7-0.5,1.3-1,2-1.4c0.1,0,0.2-0.1,0.2-0.2c0.1-0.1,0.2-0.1,0.3-0.2c0.2-0.1,0.4-0.3,0.6-0.4
		c0.2-0.1,0.4-0.2,0.7-0.4c0.2-0.1,0.4-0.2,0.6-0.3c0.5-0.2,1-0.5,1.4-0.7c0.1-0.1,0.3-0.1,0.4-0.2c0.2-0.1,0.3-0.2,0.5-0.2
		c0.2-0.1,0.3-0.2,0.5-0.3c0.8-0.3,1.6-0.6,2.4-0.9l0,0c0.8-0.3,1.6-0.5,2.5-0.7l0,0c0.9-0.2,1.7-0.4,2.6-0.6c0.2,0,0.4,0,0.6-0.1
		c0.9-0.2,1.8-0.3,2.7-0.4c0.2,0,0.4,0,0.6,0c0.2,0,0.4,0,0.7-0.1l-0.1-0.2l-1-3.6c-6,0.4-12,2.1-17.4,5.3
		c-17.5,10.3-22.9,31.6-11.9,47.8c6.3,9.3,16.7,14.8,27.7,15.9v8.5h-5.2v4.9h-20.5v8.7h58.7v-8.7h-20.5V121h-5.2v-8.5
		c4.1-0.4,8.3-1.3,12.2-3l-0.5-2l-0.3-1.1L211.3,105.6L211.3,105.6z"/>
	<path class="st9" d="M194.7,47.3c-0.2,0-0.4,0-0.6,0c-0.9,0.1-1.8,0.2-2.7,0.4c1.1,1,2.2,2.1,3.3,3.3c-1.2,1.2-2.8,2.2-4.6,2.9
		l-1.9-5.5l0,0c-0.8,0.2-1.7,0.5-2.5,0.7l0,0l1.8,5.5c-0.7,0.1-1.4,0.2-2.1,0.2c-1.1,0-2.2-0.2-3.3-0.4c0.1-1.4,0.4-2.8,0.6-4.1
		c-0.2,0.1-0.3,0.2-0.5,0.2c-0.2,0.1-0.3,0.1-0.4,0.2c-0.5,0.2-1,0.5-1.4,0.7c-0.2,0.1-0.4,0.2-0.6,0.3c-0.1,0.6-0.2,1.1-0.2,1.7
		c-0.4-0.2-0.9-0.5-1.3-0.8c-0.1,0.1-0.2,0.1-0.2,0.2c-0.7,0.5-1.4,0.9-2,1.4c1,0.8,2.2,1.5,3.4,2c0,0.9-0.1,1.8-0.1,2.7
		c0,3.1,0.3,6.3,0.8,9.7c-2.8,0.4-5.5,0.6-8.1,0.7c0.1-5.1,1-9.9,2.8-14.1c-1.1,0.9-2.1,1.8-3,2.8c-0.4,0.4-0.8,0.9-1.1,1.3
		c-0.8,3.2-1.3,6.5-1.3,10c-1.5,0-2.9-0.1-4.3-0.3c0,0,0,0.1-0.1,0.2c-0.3,0.8-0.5,1.6-0.7,2.4c1.6,0.2,3.3,0.3,5.1,0.4
		c0.2,3.9,0.9,8,2.1,12l-7,2l0,0l0,0c0.2,0.8,0.5,1.6,0.8,2.4l0,0l7-2c1.4,3.8,3.2,7.3,5.3,10.5c-1.6,1-2.9,2.1-4.2,3.2l0,0
		c0.2,0.2,0.5,0.4,0.7,0.6c0.4,0.4,0.8,0.7,1.2,1c0,0,0.1,0,0.1,0.1c1.1-0.9,2.3-1.8,3.7-2.7c2.4,3.2,5.2,6.1,8.1,8.5
		c0.5,0.1,1.1,0.3,1.6,0.4c1.4,0.3,2.9,0.5,4.4,0.7c-4.5-2.7-8.5-6.4-11.9-11c2.1-1.3,4.5-2.6,7.1-3.7c2.1,4,4.5,7.6,7,10.7
		c-0.8,1.2-1.4,2.6-1.7,4c0.8,0.1,1.7,0.1,2.5,0.1c0.1,0,0.1,0,0.2,0c0.2-0.7,0.5-1.4,0.8-2c0.6,0.7,1.2,1.3,1.8,1.9
		c0.2,0,0.4,0,0.6,0c0.1,0,0.2,0,0.3,0s0.2,0,0.4-0.1c0.7-0.1,1.4-0.2,2.1-0.3c-1.3-1.1-2.5-2.4-3.7-3.7c1.2-1.3,2.7-2.4,4.5-3.2
		l2.1,6.3l0,0c0.1,0,0.2-0.1,0.3-0.1c0.7-0.2,1.4-0.4,2.1-0.6l0,0l0,0l-2.1-6.3c0.9-0.2,1.8-0.3,2.7-0.3c1.1,0,2.1,0.1,3.1,0.4
		c-0.1,1.8-0.4,3.5-0.7,5.1c0.1-0.1,0.3-0.1,0.4-0.2v0.1l0.1,0.3c0.8-0.4,1.6-0.8,2.4-1.2c0.2-1,0.3-2.1,0.4-3.2
		c0.9,0.4,1.7,0.9,2.4,1.5c2.3-1.6,4.4-3.4,6.1-5.5c1-3.6,1.6-7.5,1.6-11.5c0-0.1,0-0.2,0-0.3c1.7,0,3.3,0.1,4.8,0.3
		c0.2-0.8,0.5-1.7,0.6-2.5c-1.7-0.2-3.6-0.3-5.5-0.4c-0.2-3.7-0.9-7.4-2.1-11.2l7-2c-0.1-0.4-0.2-0.8-0.3-1.2
		c-0.1-0.4-0.3-0.9-0.5-1.3l-6.9,2c-1.4-4-3.3-7.6-5.6-11c1.5-1,2.8-2,4-3c-0.7-0.6-1.4-1.1-2.1-1.7c-1.1,0.8-2.2,1.7-3.5,2.5
		c-2.3-3-4.9-5.7-7.6-7.9c-2-0.6-4.1-1-6.2-1.2c4.3,2.6,8.3,6.2,11.6,10.5c-2.1,1.3-4.5,2.5-7.1,3.6c-2.1-3.9-4.4-7.4-6.8-10.4
		c0.8-1.2,1.5-2.5,1.9-3.8c-0.9-0.1-1.8-0.2-2.8-0.2c-0.2,0.7-0.5,1.3-0.9,1.9C195.8,48.4,195.3,47.9,194.7,47.3z M181.9,57
		c1.1,0.3,2.3,0.4,3.5,0.4c1,0,2-0.1,3-0.3l3.1,9.1c-3,0.8-5.9,1.5-8.8,1.9c-0.5-3.3-0.7-6.4-0.7-9.3
		C181.9,58.2,181.9,57.6,181.9,57z M192.3,68.7l2.8,8.4l-9.7,2.8c-1-3.1-1.8-6.2-2.3-9.1C186.1,70.2,189.2,69.6,192.3,68.7z
		 M172.1,71.8c2.7-0.1,5.5-0.3,8.4-0.7c0.6,3.1,1.4,6.3,2.4,9.5l-8.8,2.5C172.9,79.3,172.2,75.5,172.1,71.8z M179.9,95.4
		c-2-3-3.6-6.3-4.9-9.8l8.8-2.5c1,2.9,2.2,5.8,3.5,8.4C184.6,92.7,182.1,94.1,179.9,95.4z M186.3,82.4l9.7-2.8l2.6,7.7
		c-3.1,1-6.1,2-8.9,3.2C188.4,87.9,187.3,85.2,186.3,82.4z M198.5,78.8l9.7-2.8c0.9,2.8,1.6,5.6,2.2,8.4c-3,0.5-6.2,1.2-9.3,2.1
		L198.5,78.8z M197.1,102.5c-2.2-2.8-4.3-6.1-6.3-9.7c2.7-1.1,5.5-2.2,8.5-3.1l3.1,9.2C200.4,99.7,198.5,101,197.1,102.5z M211.7,98
		c-1.1-0.2-2.1-0.3-3.3-0.3s-2.3,0.2-3.5,0.4l-3-9.1c3-0.9,6-1.5,9-2c0.6,3.5,0.9,6.9,0.9,10C211.7,97.4,211.7,97.7,211.7,98z
		 M221.7,86.2c0,5.5-1.1,10.7-3.1,15.2c-1.3-1.1-2.7-1.9-4.3-2.5c0-0.6,0.1-1.2,0.1-1.8c0-3.3-0.3-6.8-0.9-10.4
		c2.8-0.4,5.6-0.6,8.2-0.7C221.7,86,221.7,86,221.7,86.2z M221.6,83.2c-2.7,0.1-5.6,0.3-8.5,0.7c-0.6-2.8-1.3-5.7-2.2-8.7l8.8-2.5
		C220.7,76.3,221.3,79.8,221.6,83.2z M213.5,60c2.1,3.1,3.9,6.6,5.2,10.3l-8.8,2.5c-1.1-3.2-2.4-6.2-3.8-9
		C208.8,62.6,211.3,61.3,213.5,60z M207.4,73.5l-9.7,2.8l-2.8-8.4c3.1-0.9,6.1-2,8.9-3.2C205.1,67.6,206.3,70.5,207.4,73.5z
		 M202.5,62.5c-2.7,1.1-5.5,2.1-8.5,3l-3.1-9.1c2.1-0.8,3.9-1.9,5.4-3.3C198.5,55.8,200.6,59,202.5,62.5z"/>
	<polygon class="st9" points="211.3,105.7 211.5,106.3 211.4,106 	"/>
	<path class="st6" d="M117.9,330.8l5,2.2l-0.7,1.7l-3.3-1.4l-0.7,1.6l3.3,1.4l-0.7,1.7l-3.3-1.4l-1,2.4l3.3,1.4l-0.7,1.7l-5-2.1
		L117.9,330.8z"/>
	<path class="st6" d="M131.9,337.5l-1.7,0.8c-0.3-0.8-0.6-1.3-1.1-1.5c-0.2-0.1-0.4-0.1-0.6,0c-0.2,0.1-0.3,0.2-0.4,0.4
		c-0.1,0.2-0.1,0.3,0,0.5c0.1,0.2,0.4,0.8,0.9,1.7c0.5,0.8,0.8,1.3,0.9,1.5c0.2,0.5,0.4,0.9,0.4,1.3s0,0.8-0.2,1.2
		c-0.2,0.8-0.7,1.3-1.4,1.7c-0.7,0.3-1.5,0.3-2.4,0c-0.7-0.2-1.2-0.6-1.6-1.1s-0.6-1.2-0.8-2l1.8-0.4c0.2,1,0.6,1.6,1.1,1.8
		c0.3,0.1,0.6,0.1,0.9,0s0.4-0.3,0.5-0.5s0-0.4,0-0.7c-0.1-0.3-0.3-0.7-0.7-1.3c-0.8-1.2-1.2-2.1-1.3-2.6c-0.1-0.6-0.1-1.1,0-1.5
		c0.2-0.7,0.6-1.1,1.3-1.4c0.7-0.3,1.3-0.3,2.1-0.1c0.5,0.2,0.9,0.4,1.2,0.8C131.2,336.2,131.6,336.8,131.9,337.5z"/>
	<path class="st6" d="M142.1,340.8l-1.6,0.9c-0.6-1.1-1.5-1.9-2.6-2.2c-0.9-0.2-1.8-0.1-2.6,0.3c-0.8,0.5-1.3,1.2-1.6,2.1
		c-0.2,0.6-0.2,1.2,0,1.8c0.1,0.6,0.4,1.1,0.9,1.5c0.4,0.4,1,0.7,1.6,0.9c0.5,0.1,1,0.2,1.5,0.1s1.1-0.3,1.8-0.7l0.9,1.6
		c-0.9,0.5-1.7,0.8-2.4,0.9s-1.5,0-2.3-0.2c-1.5-0.4-2.6-1.2-3.3-2.4c-0.7-1.2-0.8-2.6-0.5-4c0.3-1,0.7-1.7,1.3-2.4
		c0.6-0.6,1.4-1.1,2.4-1.3c0.9-0.2,1.9-0.2,2.8,0c0.8,0.2,1.5,0.6,2.2,1.1C141.2,339.4,141.7,340,142.1,340.8z"/>
	<path class="st6" d="M143.7,339.2l1.8,0.4l-2.2,9.7l-1.8-0.4L143.7,339.2z"/>
	<path class="st6" d="M147.3,340.1l5.4,1l-0.4,1.8l-3.5-0.7l-0.4,1.8l3.5,0.7l-0.3,1.8l-3.5-0.7l-0.5,2.6l3.5,0.7l-0.4,1.8l-5.4-1
		L147.3,340.1z"/>
	<path class="st6" d="M154,341.4l1.8,0.3l3.3,7.1l1-6.5l1.9,0.3l-1.5,9.9l-1.8-0.3l-3.3-7.1l-1,6.5l-1.9-0.3L154,341.4z"/>
	<path class="st6" d="M162.9,342.6l5.5,0.6l-0.2,1.9l-1.8-0.2l-0.9,8l-1.9-0.2l0.9-8.1l-1.7-0.2L162.9,342.6z"/>
	<path class="st6" d="M169.3,343.4l1.9,0.2l-0.9,9.9l-1.9-0.2L169.3,343.4z"/>
	<path class="st6" d="M176.1,343.9l1.9,0.1l3.2,10.2l-2-0.1l-0.7-2.1l-4.1-0.3l-0.9,2l-2-0.1L176.1,343.9z M176.9,346.6l-1.5,3.3
		l2.6,0.2L176.9,346.6z"/>
	<path class="st6" d="M186.7,344.4h1.9l-0.1,3.7h3.3l0.1-3.7h1.9l-0.1,10h-1.9l0.1-4.4h-3.3l-0.1,4.4h-1.9L186.7,344.4z"/>
	<path class="st6" d="M200.5,344.2c1.4,0,2.6,0.5,3.7,1.4c1,1,1.6,2.2,1.6,3.7s-0.5,2.7-1.4,3.7c-1,1-2.2,1.6-3.6,1.6
		c-1.5,0-2.7-0.4-3.8-1.4c-1-1-1.5-2.2-1.6-3.7c0-1,0.2-1.8,0.6-2.6c0.4-0.8,1.1-1.5,1.9-2C198.7,344.4,199.6,344.2,200.5,344.2z
		 M200.5,346c-0.9,0-1.7,0.4-2.3,1c-0.6,0.7-0.9,1.5-0.9,2.5c0,1.1,0.4,2,1.2,2.6c0.6,0.5,1.4,0.7,2.1,0.7c0.9,0,1.7-0.4,2.3-1
		c0.6-0.7,0.9-1.5,0.9-2.4c0-1-0.4-1.7-1-2.4C202.2,346.3,201.4,346,200.5,346z"/>
	<path class="st6" d="M208,344.2l1.9-0.1l2.8,6.8l1.8-7.1l1.8-0.1l2.4,9.8l-1.8,0.1l-1.5-6.2l-1.7,6.4l-1.7,0.1l-2.5-6.1l-0.7,6.4
		l-1.8,0.1L208,344.2z"/>
	<path class="st6" d="M219,343.3l1.9-0.2l1.1,9.9l-1.9,0.2L219,343.3z"/>
	<path class="st6" d="M222.7,342.9l1.8-0.2l5.1,5.9l-0.9-6.5l1.9-0.3l1.4,9.9l-1.8,0.3l-5.1-5.9l0.9,6.5l-1.9,0.3L222.7,342.9z"/>
	<path class="st6" d="M232.5,341.5l1.9-0.3l1.7,9.8l-1.9,0.3L232.5,341.5z"/>
	<path class="st6" d="M241.6,341.2l-1.1,1.5c-0.6-0.6-1.2-0.8-1.7-0.7c-0.2,0-0.4,0.1-0.6,0.3c-0.1,0.2-0.2,0.3-0.1,0.5
		c0,0.2,0.1,0.3,0.3,0.4c0.2,0.2,0.7,0.5,1.6,1c0.8,0.4,1.3,0.7,1.5,0.9c0.5,0.3,0.8,0.6,1,1c0.2,0.3,0.4,0.7,0.4,1.1
		c0.2,0.8,0,1.5-0.4,2.1c-0.5,0.7-1.1,1-2,1.2c-0.7,0.1-1.3,0.1-1.9-0.1c-0.6-0.2-1.1-0.7-1.6-1.3l1.4-1.3c0.6,0.8,1.3,1.1,1.9,1
		c0.3-0.1,0.6-0.2,0.7-0.5c0.2-0.2,0.2-0.5,0.2-0.7s-0.2-0.4-0.4-0.6s-0.6-0.5-1.3-0.8c-1.2-0.6-2.1-1.2-2.5-1.6s-0.7-0.8-0.7-1.3
		c-0.1-0.7,0-1.3,0.4-1.9s1-1,1.8-1.1c0.5-0.1,1-0.1,1.5,0.1C240.4,340.4,240.9,340.7,241.6,341.2z"/>
	<path class="st6" d="M251.9,338.7l-1,1.6c-0.7-0.5-1.2-0.7-1.7-0.6c-0.2,0.1-0.4,0.2-0.6,0.4c-0.1,0.1-0.1,0.3-0.1,0.5
		s0.1,0.3,0.3,0.4c0.2,0.2,0.7,0.4,1.7,0.9c0.9,0.4,1.4,0.7,1.6,0.8c0.5,0.3,0.8,0.6,1.1,0.9c0.2,0.3,0.4,0.7,0.5,1.1
		c0.2,0.8,0.1,1.5-0.3,2.2c-0.4,0.6-1.1,1.1-1.9,1.3c-0.7,0.2-1.3,0.2-1.9,0c-0.6-0.2-1.2-0.6-1.7-1.2l1.3-1.3
		c0.7,0.7,1.3,1,1.9,0.9c0.3-0.1,0.6-0.3,0.7-0.5c0.2-0.3,0.2-0.5,0.2-0.7c-0.1-0.2-0.2-0.4-0.4-0.6s-0.7-0.4-1.3-0.7
		c-1.3-0.6-2.1-1.1-2.6-1.5c-0.4-0.4-0.7-0.8-0.8-1.3c-0.2-0.7-0.1-1.3,0.3-1.9c0.4-0.6,1-1,1.7-1.2c0.5-0.1,1-0.1,1.5,0
		C250.7,337.9,251.2,338.2,251.9,338.7z"/>
	<path class="st6" d="M255.9,336.1l1.8-0.6l6.7,8.3l-1.9,0.6l-1.4-1.7l-3.9,1.3l-0.2,2.2l-1.9,0.6L255.9,336.1z M257.6,338.3
		l-0.2,3.7l2.5-0.8L257.6,338.3z"/>
	<path class="st6" d="M262.1,333.9l1.8-0.7l3,7.6l2.6-1l0.7,1.7l-4.4,1.7L262.1,333.9z"/>
	<path class="st6" d="M267.1,332l1.7-0.8l2.8,5.8c0.2,0.5,0.5,0.8,0.6,1c0.2,0.2,0.4,0.3,0.7,0.3c0.3,0,0.6-0.1,0.8-0.2
		c0.3-0.1,0.5-0.3,0.7-0.6c0.1-0.2,0.2-0.5,0.2-0.8s-0.2-0.7-0.5-1.3l-2.7-5.6l1.7-0.8l2.6,5.4c0.4,0.9,0.7,1.5,0.7,1.9
		c0.1,0.4,0,0.8-0.1,1.3s-0.4,0.9-0.6,1.2c-0.3,0.3-0.7,0.6-1.2,0.8c-0.6,0.3-1.3,0.4-1.9,0.4c-0.7-0.1-1.2-0.3-1.6-0.6
		c-0.4-0.4-0.9-1.1-1.4-2.1L267.1,332z"/>
	<path class="st6" d="M280.9,326.7l-0.8,1.7c-0.7-0.4-1.3-0.6-1.8-0.4c-0.2,0.1-0.4,0.2-0.5,0.4c-0.1,0.2-0.1,0.3,0,0.5
		s0.2,0.3,0.3,0.4c0.2,0.1,0.8,0.3,1.8,0.6c0.9,0.3,1.5,0.5,1.7,0.6c0.5,0.2,0.9,0.4,1.2,0.7c0.3,0.3,0.5,0.6,0.7,1
		c0.3,0.8,0.3,1.5,0,2.2s-0.9,1.2-1.7,1.6c-0.7,0.3-1.3,0.4-1.9,0.2c-0.6-0.1-1.2-0.4-1.9-1l1.1-1.5c0.8,0.6,1.5,0.8,2,0.6
		c0.3-0.2,0.5-0.3,0.6-0.6c0.1-0.3,0.1-0.5,0.1-0.7c-0.1-0.2-0.3-0.4-0.5-0.5s-0.7-0.3-1.4-0.5c-1.3-0.4-2.3-0.7-2.7-1.1
		c-0.5-0.3-0.8-0.7-1-1.1c-0.3-0.7-0.3-1.3,0-2c0.3-0.6,0.8-1.1,1.5-1.4c0.5-0.2,0.9-0.3,1.4-0.2
		C279.5,326.2,280.2,326.4,280.9,326.7z"/>
	<g>
		<path class="st8" d="M288.5,231.3h14.1v-15.2h-13.9c-0.8-3.4-2.1-6.7-3.8-9.6l9.7-9.7l-10.8-10.7l-9.5,9.5c-3-1.9-6.3-3.3-9.8-4
			v-13.4h-15.3v14.1c-3.2,1-6.2,2.4-8.9,4.3l-10.5-10.4L219,196.9l11.3,11.2c-1.3,2.5-2.3,5.2-2.9,8H211v15.2h16.5
			c0.7,2.8,1.6,5.4,3,7.8L219,250.5l10.8,10.7l10.8-10.8c2.6,1.8,5.4,3.2,8.5,4.1v14.7h15.3v-14c3.4-0.7,6.6-2,9.4-3.8l9.9,9.9
			l10.8-10.7l-9.9-9.9C286.4,237.8,287.7,234.7,288.5,231.3z"/>
		<path class="st0" d="M258.1,202.4c-11.3,0-20.4,9.4-20.4,21s9.2,21,20.4,21c11.3,0,20.5-9.4,20.5-21
			C278.5,211.8,269.4,202.4,258.1,202.4z M257.8,236.5c-7.4,0-13.4-6-13.4-13.4s6-13.4,13.4-13.4s13.4,6,13.4,13.4
			C271.2,230.5,265.2,236.5,257.8,236.5z"/>
		<path class="st0" d="M265.7,223.3c0,4-3.4,7.3-7.6,7.3c-4.2,0-7.6-3.3-7.6-7.3s3.4-7.3,7.6-7.3C262.3,216,265.7,219.2,265.7,223.3
			z"/>
	</g>
</g>
</svg>
